inDegrees=yes
name=ik_lifting_orientations
DataType=double
version=3
OpenSimVersion=4.5-2024-01-10-34fd6af
endheader
time	pelvis_tilt	pelvis_list	pelvis_rotation	pelvis_tx	pelvis_ty	pelvis_tz	hip_flexion_r	hip_adduction_r	hip_rotation_r	knee_angle_r	knee_angle_r_beta	ankle_angle_r	subtalar_angle_r	mtp_angle_r	hip_flexion_l	hip_adduction_l	hip_rotation_l	knee_angle_l	knee_angle_l_beta	ankle_angle_l	subtalar_angle_l	mtp_angle_l	lumbar_extension	lumbar_bending	lumbar_rotation	arm_flex_r	arm_add_r	arm_rot_r	elbow_flex_r	pro_sup_r	wrist_flex_r	wrist_dev_r	arm_flex_l	arm_add_l	arm_rot_l	elbow_flex_l	pro_sup_l	wrist_flex_l	wrist_dev_l
0.02	-0.002215664501539754	-0.008073244332758486	-89.9567818682274	0	0.9399999998679526	0	44.87505038295097	-11.58476857897619	0	59.93149131411133	1.046001849061626	-5.623673725326868	0	0	44.87505038295097	-11.58476857897619	0	59.93149131411133	1.046001849061626	-5.623673725326868	0	0	-0.01272910303492044	0.0004206092747222134	0.01076399777655497	-0.2309387580010556	-0.0574720375647269	-0.01851243490768765	0.4935759334180567	3.188981934240691	0	0	0	-9.191850319116622	0	86.87319839806433	3.188981934240691	0	0
0.03	-0.0313748559307904	0.03769285136064265	-89.9496269695878	0	0.9399999998679526	0	44.87791392173904	-11.47233986068618	0	59.93273544387492	1.046023563222322	-5.568717862296545	0	0	44.87791392173904	-11.47233986068618	0	59.93273544387492	1.046023563222322	-5.568717862296545	0	0	0.05608277722182166	0.03052485229649408	0.002363234482087143	-0.505210776920885	-0.06909942428307402	-0.02090530768933957	1.005427004972161	3.137305975639347	0	0	0	-9.261834167689468	0	86.92386187686995	3.137305975639347	0	0
0.04	0.002943744162947085	0.0006132976805247645	-89.95581258646229	0	0.9399999998679526	0	44.8804742422672	-11.37543345550587	0	59.93385177718263	1.046043046914092	-5.521993413739096	0	0	44.8804742422672	-11.37543345550587	0	59.93385177718263	1.046043046914092	-5.521993413739096	0	0	-0.05827246936023993	0.01261889753569466	0.1210241644965806	-0.1780982857489007	-0.03937960193920765	-0.1296247236033955	0.4965113391322353	3.090875593900983	0	0	0	-9.32490247476983	0	86.96938261842818	3.090875593900983	0	0
0.05	-0.000736314648574104	0.007563297930464381	-89.95489831649293	0	0.9399999998679526	0	44.88343476443352	-11.27186862793525	0	59.93515234822168	1.046065746160879	-5.473471931974363	0	0	44.88343476443352	-11.27186862793525	0	59.93515234822168	1.046065746160879	-5.473471931974363	0	0	-0.04152142682887823	0.02393335312081192	0.1801353462828869	-0.1890323544825758	-0.04759667971249201	-0.1902581647672516	0.496637569058033	3.036611487454622	0	0	0	-9.399096581442759	0	87.0225837822816	3.036611487454622	0	0
0.06	-0.000843856349853661	0.004171835051298791	-89.95877476192383	0	0.9399999998679526	0	44.8854536190939	-11.2049051870035	0	59.93604407450478	1.046081309720546	-5.442672250592883	0	0	44.8854536190939	-11.2049051870035	0	59.93604407450478	1.046081309720546	-5.442672250592883	0	0	-0.1052609021610083	0.03908361021129751	0.241240209355437	-0.1297708412467315	-0.06008610285796769	-0.2450613467544693	0.4969682598905636	2.99932814874068	0	0	0	-9.450310809772899	0	87.05913687754094	2.99932814874068	0	0
0.07000000000000001	-0.00489090246434599	0.02396629946836566	-89.96544376311023	0	0.9399999998679526	0	44.88831284242343	-11.11319165768656	0	59.9373110248785	1.046103422176027	-5.40102659035491	0	0	44.88831284242343	-11.11319165768656	0	59.9373110248785	1.046103422176027	-5.40102659035491	0	0	-0.05854437608614498	0.04964649695742377	0.3135331506123102	-0.2166893097314875	-0.07693968867391385	-0.3171199149631813	0.6001975721153957	2.946289955205474	0	0	0	-9.523365785642726	0	87.11113631035653	2.946289955205474	0	0
0.08	-0.01174061371155815	-0.001527036926696328	-89.96873950286988	0	0.9399999998679526	0	44.89077904982187	-11.03676564167191	0	59.93840814708911	1.046122570570899	-5.366762440644839	0	0	44.89077904982187	-11.03676564167191	0	59.93840814708911	1.046122570570899	-5.366762440644839	0	0	-0.1134731530879884	0.04057047750908981	0.3179088438548727	-0.1285399276748066	-0.04381888043656436	-0.3051198185620173	0.4963397238257584	2.900328248830565	0	0	0	-9.58685547219612	0	87.1561978997364	2.900328248830565	0	0
0.09	0.0002953694846557628	-0.002511961961135465	-89.95502217318699	0	0.9399999998679526	0	44.89309401298157	-10.96818874194155	0	59.93944187686957	1.046140612559143	-5.336525862911812	0	0	44.89309401298157	-10.96818874194155	0	59.93944187686957	1.046140612559143	-5.336525862911812	0	0	-0.1536974648377969	0.04583778035318681	0.404633972917291	-0.07603018681711382	-0.0593983258039731	-0.3868469233499258	0.4958117313263685	2.856921865014646	0	0	0	-9.647039029439346	0	87.19875427680896	2.856921865014646	0	0
0.1	-0.002375929734419364	-0.0693674396995704	-89.94846538068693	0	0.9399999998679526	0	44.89530560088443	-10.90547821182431	0	59.94043360515197	1.046157921482957	-5.309326178422521	0	0	44.89530560088443	-10.90547821182431	0	59.94043360515197	1.046157921482957	-5.309326178422521	0	0	-0.2538266869696049	0.05540465030225406	0.4975575319793477	-0.03657399626065739	-0.05991450662485287	-0.460119436027184	0.4903910136152372	2.815210575219445	0	0	0	-9.705079838840607	0	87.23964881263549	2.815210575219445	0	0
